<svg id="visual" viewBox="0 0 1920 1450" width="1920" height="1450" xmlns="http://www.w3.org/2000/svg" xmlns:xlink="http://www.w3.org/1999/xlink" version="1.1"><path d="M0 161L320 175L640 175L960 161L1280 248L1600 233L1920 161L1920 0L1600 0L1280 0L960 0L640 0L320 0L0 0Z" fill="#735f32"></path><path d="M0 320L320 320L640 465L960 436L1280 421L1600 480L1920 364L1920 159L1600 231L1280 246L960 159L640 173L320 173L0 159Z" fill="#9b7b3d"></path><path d="M0 407L320 538L640 683L960 639L1280 523L1600 668L1920 451L1920 362L1600 478L1280 419L960 434L640 463L320 318L0 318Z" fill="#c69749"></path><path d="M0 741L320 944L640 1001L960 900L1280 842L1600 944L1920 987L1920 449L1600 666L1280 521L960 637L640 681L320 536L0 405Z" fill="#c69749"></path><path d="M0 1263L320 1335L640 1364L960 1277L1280 1277L1600 1292L1920 1292L1920 985L1600 942L1280 840L960 898L640 999L320 942L0 739Z" fill="#9b7b3d"></path><path d="M0 1451L320 1451L640 1451L960 1451L1280 1451L1600 1451L1920 1451L1920 1290L1600 1290L1280 1275L960 1275L640 1362L320 1333L0 1261Z" fill="#735f32"></path></svg>